<svg xmlns="http://www.w3.org/2000/svg" viewBox="0 0 512 512" width="512" height="512">
  <rect width="512" height="512" rx="96" fill="#2e7d32"/>
  <g fill="#ffffff">
    <path d="M256 400c0-70 0-120 0-150 0-8 12-8 12 0 0 40 0 90 0 150z" opacity="0"/>
    <path d="M262 410c-6 0-10-4-10-10V236c0-6 4-10 10-10s10 4 10 10v164c0 6-4 10-10 10z"/>
    <path d="M262 250c-60-4-104-46-104-104 0-8 2-16 4-24 2-6 10-8 15-4 46 30 78 70 85 116 1 8-4 16-12 16z" fill="#a5d6a7"/>
    <path d="M262 250c56-6 96-46 96-100 0-8-2-16-4-22-2-6-10-8-15-4-42 28-72 66-79 110-1 8 4 16 12 16z" fill="#c8e6c9"/>
    <path d="M300 300h-76c-10 0-18 8-16 18l16 92c1 6 6 10 12 10h52c6 0 11-4 12-10l16-92c2-10-6-18-16-18z" fill="#8d6e63"/>
  </g>
</svg>
